<svg xmlns="http://www.w3.org/2000/svg" viewBox="-46 19 180 50" xmlns:v="https://vecta.io/nano"><path fill="#fff" d="M130.8 68.9H-42.9c-1.6 0-3.1-1.4-3.1-3.1V22c0-1.6 1.4-3.1 3.1-3.1H131c1.6 0 3.1 1.4 3.1 3.1v43.9c-.3 1.6-1.7 3-3.3 3z"/><g fill="#222"><path d="M23.8 32.2c0-.5-.2-.9-.5-1.2-.4-.3-.9-.4-1.5-.4-.5 0-1 .1-1.4.4s-.5.7-.5 1.1h-1.2c0-.5.1-.9.4-1.3s.6-.7 1.1-.9 1-.3 1.6-.3c1 0 1.8.2 2.4.7a2.32 2.32 0 0 1 .9 1.9 1.92 1.92 0 0 1-.4 1.2c-.3.4-.6.6-1.1.8 1.1.4 1.6 1.1 1.6 2.2 0 .8-.3 1.5-.9 2s-1.4.7-2.5.7c-.6 0-1.2-.1-1.7-.3a2.73 2.73 0 0 1-1.2-.9c-.3-.4-.4-.9-.4-1.4h1.2c0 .5.2.9.6 1.2s.9.5 1.5.5c.7 0 1.2-.2 1.6-.5s.6-.7.6-1.2c0-1.1-.7-1.6-2-1.7h-1.1v-1H22c.6 0 1.1-.2 1.4-.4.3-.3.4-.7.4-1.2zm7 6.8c-.1-.1-.1-.4-.2-.7-.5.6-1.2.9-2 .9a2.52 2.52 0 0 1-1.7-.6c-.4-.4-.7-.9-.7-1.5 0-.7.3-1.3.8-1.7s1.3-.6 2.3-.6h1.1v-.5c0-.4-.1-.7-.4-1 0-.2-.3-.3-.8-.3-.4 0-.8.1-1.1.3s-.4.5-.4.8h-1.2c0-.3.1-.7.4-1 .2-.3.6-.6 1-.8s.9-.3 1.4-.3c.8 0 1.4.2 1.9.6.4.4.7.9.7 1.6v3.2c0 .6.1 1.1.2 1.5v.1h-1.3zm-1.9-.9a1.69 1.69 0 0 0 1-.3c.3-.2.6-.4.7-.7v-1.4h-.9c-1.4 0-2.2.4-2.2 1.3 0 .4.1.7.4.9s.6.2 1 .2zm9.2-5h-3.2V39h-1.2v-6.9H38v1zm6.8 2.5c0 1-.2 1.9-.7 2.5s-1.1 1-1.9 1-1.5-.3-2-.8v3.3h-1.2v-9.5h1.1l.1.8c.5-.6 1.1-.9 2-.9.8 0 1.5.3 2 .9s.7 1.5.7 2.6v.1zm-1.1-.1c0-.8-.2-1.4-.5-1.8a1.75 1.75 0 0 0-1.4-.7c-.7 0-1.2.3-1.6.9v3.3c.4.6.9.9 1.6.9.6 0 1-.2 1.3-.7.4-.3.6-1 .6-1.9zm4.8 1.8l1.6-5.1h1.3l-2.8 7.9c-.4 1.1-1.1 1.7-2 1.7h-.2l-.5-.1v-1h.3c.4 0 .7-.1.9-.2.2-.2.4-.5.5-.9l.3-.7-2.5-6.8h1.3l1.8 5.2zm7.7-3.3c0-.3-.1-.6-.4-.8-.2-.2-.6-.3-1-.3s-.8.1-1 .3-.4.5-.4.8h-1.2c0-.6.2-1.1.7-1.5s1.1-.6 1.9-.6 1.4.2 1.9.5c.4.3.7.8.7 1.5 0 .3-.1.6-.3.9s-.5.5-.8.6c.8.3 1.2.8 1.2 1.6 0 .6-.2 1.1-.7 1.5s-1.1.6-1.9.6-1.4-.2-2-.6c-.5-.4-.8-.9-.8-1.6h1.2c0 .3.1.6.4.9.3.2.7.4 1.1.4s.8-.1 1.1-.3.4-.5.4-.8c0-.4-.1-.7-.3-.8-.3-.2-.6-.3-1.1-.3h-1.2v-1h1.3c.8 0 1.2-.4 1.2-1zm7.2-1.9h1.2V39h-1.2v-5l-3.2 5h-1.2v-6.9h1.2v5l3.2-5zm8.2 1h-2.3V39h-1.2v-5.9H66v-1h5.7v1z"/><path d="M75.2 39.1c-.9 0-1.7-.3-2.3-.9s-.9-1.4-.9-2.5v-.2c0-.7.1-1.3.4-1.8s.6-1 1.1-1.3 1-.5 1.5-.5c.9 0 1.6.3 2.1.9s.7 1.4.7 2.5v.5h-4.7c0 .7.2 1.2.6 1.6s.9.6 1.4.6c.4 0 .8-.1 1.1-.3s.5-.4.8-.7l.7.6c-.5 1.1-1.4 1.5-2.5 1.5zM75 33c-.5 0-.9.2-1.2.5s-.5.8-.6 1.5h3.4v-.1c0-.6-.2-1.1-.5-1.4-.2-.4-.6-.5-1.1-.5zM19 57v-6.9h2.7c.9 0 1.6.2 2.1.5s.7.8.7 1.4c0 .3-.1.6-.3.9s-.5.5-.8.6c.4.1.7.3 1 .6s.4.6.4 1c0 .6-.2 1.1-.7 1.4s-1.1.5-2 .5H19zm1.2-4h1.5c1.1 0 1.7-.3 1.7-1 0-.6-.5-1-1.6-1h-1.6v2zm0 1v2.1h1.9c.5 0 .9-.1 1.1-.3s.4-.4.4-.8c0-.7-.5-1-1.5-1h-1.9zm14.6.6h-3.9l-.8 2.4h-1.3l3.5-9.2h1.1L37 57h-1.3l-.9-2.4zm-3.5-1h3.1l-1.6-4.3-1.5 4.3zm12.5 0c0 1-.2 1.9-.7 2.5s-1.1 1-1.9 1-1.5-.3-2-.8v3.3H38v-9.5h1.1l.1.8c.5-.6 1.1-.9 2-.9.8 0 1.5.3 2 .9s.7 1.5.7 2.6v.1zm-1.2-.1c0-.8-.2-1.4-.5-1.8a1.75 1.75 0 0 0-1.4-.7c-.7 0-1.2.3-1.6.9v3.3c.4.6.9.9 1.6.9.6 0 1-.2 1.3-.7.5-.3.6-1 .6-1.9zm8.5.1c0 1-.2 1.9-.7 2.5s-1.1 1-1.9 1-1.5-.3-2-.8v3.3h-1.2v-9.5h1.1l.1.8c.5-.6 1.1-.9 2-.9.8 0 1.5.3 2 .9s.7 1.5.7 2.6v.1zm-1.2-.1c0-.8-.2-1.4-.5-1.8A1.75 1.75 0 0 0 48 51c-.7 0-1.2.3-1.6.9v3.3c.4.6.9.9 1.6.9.6 0 1-.2 1.3-.7.5-.3.6-1 .6-1.9zm8.8-.6c-1-.3-1.8-.7-2.3-1.1s-.7-1-.7-1.6c0-.7.3-1.3.9-1.8s1.3-.7 2.3-.7c.6 0 1.2.1 1.7.4.5.2.9.6 1.2 1s.4.9.4 1.4H61c0-.6-.2-1-.5-1.3-.4-.3-.9-.5-1.5-.5s-1.1.1-1.4.4-.5.6-.5 1.1c0 .4.2.7.5 1s.9.5 1.6.7c.8.2 1.4.5 1.8.7.4.3.8.6 1 .9s.3.8.3 1.2c0 .7-.3 1.3-.9 1.8s-1.4.7-2.3.7c-.6 0-1.2-.1-1.8-.4s-1-.6-1.3-1-.4-.9-.4-1.4h1.2c0 .6.2 1 .6 1.3s1 .5 1.7.5c.6 0 1.1-.1 1.5-.4.3-.3.5-.6.5-1.1s-.2-.8-.5-1.1c-.5-.2-1-.5-1.9-.7zm6.4-4.4v1.7h1.3v.8h-1.3v4.3c0 .3.1.5.2.6s.3.2.6.2c.1 0 .3 0 .6-.1v1c-.3.1-.6.1-.9.1-.5 0-.9-.2-1.2-.5s-.4-.8-.4-1.4V51h-1.3v-.9H64v-1.7h1.1zm2.2 5c0-.7.1-1.3.4-1.8s.6-1 1.1-1.2 1-.4 1.6-.4c.9 0 1.7.3 2.3 1 .6.6.9 1.5.9 2.6v.1c0 .7-.1 1.3-.4 1.8s-.6.9-1.1 1.2-1 .4-1.6.4c-.9 0-1.7-.3-2.3-1s-.9-1.5-.9-2.7h0zm1.2.1c0 .8.2 1.4.5 1.8.4.5.8.7 1.4.7s1.1-.2 1.4-.7.5-1.1.5-2c0-.8-.2-1.4-.5-1.8s-.8-.6-1.3-.6c-.6 0-1 .2-1.4.7-.4.4-.6 1.1-.6 1.9zm9.9-2.4h-.6c-.8 0-1.3.3-1.6 1V57H75v-6.9h1.1v.8c.4-.6.9-.9 1.6-.9.2 0 .4 0 .5.1v1.1zm3.8 5.9c-.9 0-1.7-.3-2.3-.9s-.9-1.4-.9-2.5v-.2c0-.7.1-1.3.4-1.8s.6-1 1.1-1.3 1-.5 1.5-.5c.9 0 1.6.3 2.1.9s.7 1.4.7 2.5v.5h-4.7c0 .7.2 1.2.6 1.6s.9.6 1.4.6c.4 0 .8-.1 1.1-.3s.5-.4.8-.7l.7.6c-.5 1.1-1.4 1.5-2.5 1.5zM82 51c-.5 0-.9.2-1.2.5s-.5.8-.6 1.5h3.4v-.1c0-.6-.2-1.1-.5-1.4-.2-.4-.6-.5-1.1-.5z"/></g><path d="M-14.7 38.5c-2.5 4.3-.8 10.8 1.8 14.7 1.4 2 2.9 3.9 4.7 3.9h0c.8 0 1.4-.2 2.2-.6.6-.2 1.4-.6 2.7-.6 1 0 1.8.2 2.5.6.6.2 1.2.6 2.2.6 2 0 3.5-2 4.5-3.7 1.2-1.8 1.8-3.5 2-4.1h0v-.2c-.4-.2-3.7-1.6-3.7-5.5 0-3.3 2.5-4.9 3.1-5.3h0v-.4c-1.6-2.5-4.5-2.9-5.5-3.1h-.4c-1.2 0-2.5.4-3.5.8-.6.2-1.2.4-1.6.4s-1-.2-1.6-.4c-.8-.4-1.8-.8-3.1-.8h0c-2.6.1-5.1 1.5-6.3 3.7zM1.9 27.7c-1.4 0-3.3 1-4.5 2.2-.8 1-1.8 2.9-1.6 4.7 0 0 0 .2.2.2h.2c1.4 0 3.1-.8 4.3-2 1.2-1.4 1.6-3.3 1.6-4.7 0-.2-.2-.4-.2-.4z"/></svg>